<?xml version="1.0" ?><svg viewBox="0 0 40 40" xmlns="http://www.w3.org/2000/svg"><g id="Logos"><g id="Fendi"><path d="M8.29,5c4.26,0,8.52,0,12.78,0,1.55.11,3.1,0,4.64.06-.07,1.38-.05,2.76-.05,4.15H12.75c0,2.07,0,4.13,0,6.19,2.41,0,4.83,0,7.24,0,0,1.32,0,2.64,0,3.95-2.41,0-4.83,0-7.25,0,0,5.2,0,10.4,0,15.59-1.51,0-3,0-4.54,0,0-4.41,0-8.83.06-13.25,0-5.57,0-11.15,0-16.72Z" id="path6"/><path d="M27.25,5c1.5,0,3,0,4.52,0,0,4,0,8-.05,12v14.1c0,1.3,0,2.62-.06,3.92-2.44,0-4.87-.07-7.31-.05h-10c0-1.39,0-2.78,0-4.17H27.24c0-2.08,0-4.16,0-6.24-2.41,0-4.83,0-7.24,0,0-1.32,0-2.64,0-4,2.42-.05,4.84,0,7.25,0,0-5.18,0-10.37,0-15.55Z" id="path8"/></g></g></svg>